<svg width="50" height="50" viewBox="0 0 50 50" fill="none" xmlns="http://www.w3.org/2000/svg">
<path d="M19 16.75C19 16.1977 18.5523 15.75 18 15.75C17.4477 15.75 17 16.1977 17 16.75H19ZM17 18.19C17 18.7423 17.4477 19.19 18 19.19C18.5523 19.19 19 18.7423 19 18.19H17ZM23.1266 19.2877C23.5171 18.8971 23.5171 18.264 23.1266 17.8735C22.736 17.4829 22.1029 17.4829 21.7124 17.8735L23.1266 19.2877ZM20.6941 18.8917C20.3036 19.2822 20.3036 19.9154 20.6941 20.3059C21.0846 20.6964 21.7178 20.6964 22.1083 20.3059L20.6941 18.8917ZM15.2254 27.2071C15.6159 26.8166 15.6159 26.1834 15.2254 25.7929C14.8348 25.4024 14.2017 25.4024 13.8112 25.7929L15.2254 27.2071ZM12.7929 26.8111C12.4024 27.2017 12.4024 27.8348 12.7929 28.2253C13.1834 28.6159 13.8166 28.6159 14.2071 28.2253L12.7929 26.8111ZM14.2877 17.8735C13.8972 17.4829 13.264 17.4829 12.8735 17.8735C12.483 18.264 12.483 18.8971 12.8735 19.2877L14.2877 17.8735ZM13.8917 20.3059C14.2822 20.6964 14.9154 20.6964 15.3059 20.3059C15.6965 19.9154 15.6965 19.2822 15.3059 18.8917L13.8917 20.3059ZM11.75 22C11.1977 22 10.75 22.4477 10.75 23C10.75 23.5523 11.1977 24 11.75 24V22ZM13.19 24C13.7423 24 14.19 23.5523 14.19 23C14.19 22.4477 13.7423 22 13.19 22V24ZM17.8663 29.8853L16.8918 29.6609L16.8918 29.6609L17.8663 29.8853ZM19.6304 27.6234L19.9264 28.5786C20.1995 28.494 20.4233 28.2965 20.5413 28.036C20.6593 27.7755 20.6601 27.4769 20.5435 27.2158L19.6304 27.6234ZM26.6556 24.284L25.787 24.7797C25.9403 25.0482 26.2092 25.2308 26.5154 25.2742C26.8216 25.3175 27.1306 25.2168 27.3524 25.0013L26.6556 24.284ZM31.5832 25.8059L30.5848 25.7501C30.5645 26.1147 30.7444 26.4613 31.0542 26.6545C31.364 26.8476 31.7544 26.8566 32.0728 26.6779L31.5832 25.8059ZM33.2235 25.3192L33.257 26.3186L33.2571 26.3186L33.2235 25.3192ZM20.4943 32.5927V31.5927C20.4808 31.5927 20.4673 31.593 20.4538 31.5936L20.4943 32.5927ZM18 25.2328C16.7669 25.2328 15.7673 24.2331 15.7673 23H13.7673C13.7673 25.3377 15.6623 27.2328 18 27.2328V25.2328ZM15.7673 23C15.7673 21.7669 16.7669 20.7672 18 20.7672V18.7672C15.6623 18.7672 13.7673 20.6623 13.7673 23H15.7673ZM18 20.7672C18.6518 20.7672 19.1307 20.9778 19.446 21.2802C19.7601 21.5815 19.982 22.0409 19.999 22.6724L21.9983 22.6185C21.9687 21.5226 21.5665 20.5429 20.8305 19.8369C20.0957 19.1321 19.0986 18.7672 18 18.7672V20.7672ZM19.999 22.6724C19.9997 22.698 20 22.7238 20 22.75H22C22 22.706 21.9994 22.6622 21.9983 22.6185L19.999 22.6724ZM17 16.75V18.19H19V16.75H17ZM21.7124 17.8735L20.6941 18.8917L22.1083 20.3059L23.1266 19.2877L21.7124 17.8735ZM13.8112 25.7929L12.7929 26.8111L14.2071 28.2253L15.2254 27.2071L13.8112 25.7929ZM12.8735 19.2877L13.8917 20.3059L15.3059 18.8917L14.2877 17.8735L12.8735 19.2877ZM11.75 24H13.19V22H11.75V24ZM18.8408 30.1097C19.0451 29.2225 19.4004 28.7416 19.9264 28.5786L19.3344 26.6682C17.7852 27.1483 17.1543 28.5206 16.8918 29.6609L18.8408 30.1097ZM20.5435 27.2158C20.3341 26.7467 20.2478 26.3018 20.2487 25.8934L18.2487 25.8889C18.2472 26.5895 18.3967 27.313 18.7172 28.031L20.5435 27.2158ZM20.2487 25.8934C20.251 24.8955 20.78 24.0076 21.5639 23.4704L20.4333 21.8206C19.1645 22.6901 18.2526 24.1658 18.2487 25.8889L20.2487 25.8934ZM21.5639 23.4704C22.1981 23.0358 22.9552 22.8612 23.6711 23.016C24.3687 23.1668 25.1462 23.6566 25.787 24.7797L27.5241 23.7884C26.6463 22.25 25.4284 21.3497 24.0937 21.0611C22.7773 20.7766 21.4653 21.1134 20.4333 21.8206L21.5639 23.4704ZM27.3524 25.0013C28.5155 23.8713 29.3402 23.9366 29.751 24.1326C30.239 24.3655 30.6274 24.9877 30.5848 25.7501L32.5817 25.8616C32.6623 24.4171 31.9417 22.9621 30.6125 22.3277C29.206 21.6564 27.5053 22.0643 25.9588 23.5668L27.3524 25.0013ZM32.0728 26.6779C32.5124 26.4311 32.9134 26.3302 33.257 26.3186L33.19 24.3198C32.4993 24.3429 31.788 24.5442 31.0937 24.9339L32.0728 26.6779ZM33.5987 31.5927H20.4943V33.5927H33.5987V31.5927ZM16.8918 29.6609C16.6282 30.8056 17.0544 31.842 17.7708 32.5429C18.4747 33.2316 19.4862 33.6344 20.5348 33.5919L20.4538 31.5936C19.9561 31.6137 19.4799 31.417 19.1695 31.1133C18.8717 30.8219 18.7571 30.4732 18.8408 30.1097L16.8918 29.6609ZM18.995 24.8869C18.917 24.9325 18.8461 24.9727 18.7789 25.0084L19.7186 26.7739C19.8173 26.7214 19.913 26.667 20.0051 26.6131L18.995 24.8869ZM18.7789 25.0084C18.4841 25.1654 18.2723 25.2328 18 25.2328V27.2328C18.7058 27.2328 19.245 27.026 19.7186 26.7739L18.7789 25.0084ZM33.2571 26.3186C33.7076 26.3035 34.0863 26.5107 34.4082 26.9758C34.7465 27.4646 34.9706 28.1854 35.0105 28.9636C35.0506 29.7441 34.8993 30.4598 34.6223 30.941C34.366 31.3862 34.0388 31.5927 33.5987 31.5927V33.5927C34.8911 33.5927 35.8162 32.8756 36.3555 31.9389C36.8741 31.0381 37.0619 29.9136 37.0079 28.8612C36.9538 27.8065 36.6508 26.7017 36.0527 25.8376C35.4382 24.9497 34.471 24.2768 33.19 24.3198L33.2571 26.3186Z" fill="white"/>
</svg>
