<svg width="50" height="50" viewBox="0 0 50 50" fill="none" xmlns="http://www.w3.org/2000/svg">
<path d="M34.3948 25.7485C35.4336 25.3075 36.2673 24.5849 36.8462 23.7058C36.972 23.5146 36.7385 23.2937 36.5278 23.3831C34.3822 24.2938 31.8984 23.2783 30.98 21.1148C30.0617 18.9512 31.0566 16.4591 33.2022 15.5483C33.4128 15.4589 33.4161 15.1374 33.1912 15.0952C32.1567 14.9008 31.0577 14.9986 30.0189 15.4395C27.5707 16.4787 26.2611 19.0828 26.7445 21.6126M26.8858 22.1867C25.9792 22.3128 24.9623 22.7926 23.9037 23.7592C20.0765 17.4553 11.7621 22.396 14.4215 27.9954C13.1013 28.3799 12.4342 29.4465 12.0981 30.6448C11.5336 32.6574 13.4988 34.379 15.5876 34.2994H33.535V34.2994C37.9251 34.2994 37.3185 25.0943 32.9285 25.0703C32.1858 25.0662 31.3787 25.2551 30.5548 25.6898C30.673 23.7004 29.1117 21.8773 26.8858 22.1867ZM26.8858 22.1867C26.8282 21.9962 26.7812 21.8046 26.7445 21.6126M26.8858 22.1867L26.7445 21.6126" stroke="white" stroke-width="2" stroke-linejoin="round"/>
</svg>
