<svg width="50" height="50" viewBox="0 0 50 50" fill="none" xmlns="http://www.w3.org/2000/svg">
<path d="M31.366 24.3124C32.2537 21.9204 29.4413 20.2534 26.6513 21.7291C26.7782 19.589 24.3686 17.7006 21.5801 20.2534C18.6619 15.4345 12.3225 19.2113 14.3501 23.4916C13.3336 23.7884 12.8249 24.617 12.5711 25.5441C12.1532 27.0707 13.6468 28.3713 15.2393 28.3104H17.6447M17.6447 28.3104C17.5656 28.4891 17.5001 28.6762 17.4459 28.8678C17.0142 30.3934 18.5061 31.6999 20.0904 31.6397H33.7115V31.6397C37.032 31.6397 36.5687 24.6823 33.2483 24.6589C32.6835 24.6549 32.0696 24.7977 31.4427 25.1275C31.5689 23.0098 29.172 21.1412 26.398 23.6672C23.4951 18.899 17.1889 22.6361 19.206 26.8715C18.4193 27.0999 17.9383 27.6469 17.6447 28.3104Z" stroke="white" stroke-width="2" stroke-linejoin="round"/>
</svg>
