<svg width="50" height="50" viewBox="0 0 50 50" fill="none" xmlns="http://www.w3.org/2000/svg">
<path d="M15.4541 36.5459L16.1612 37.253L17.5754 35.8388L16.8683 35.1317C15.26 33.5234 14.1647 31.4743 13.721 29.2435C13.5676 28.4724 13.4944 27.6916 13.5003 26.913H15.7609H16.7609V24.913H15.7609H13.691C13.8366 24.1238 14.0652 23.3481 14.3754 22.5991C14.8271 21.5087 15.4413 20.5004 16.192 19.6061L17.5188 20.9329L18.2259 21.64L19.6401 20.2258L18.933 19.5187L17.6062 18.1919C17.9261 17.9234 18.2614 17.6717 18.6109 17.4381C20.2238 16.3604 22.0783 15.7113 24 15.5436V17.7609V18.7609H26V17.7609V15.5436C27.9217 15.7113 29.7762 16.3604 31.3891 17.4381C31.6886 17.6383 31.9777 17.8518 32.2556 18.0778L30.8146 19.5187L30.1075 20.2258L31.5217 21.64L32.2288 20.9329L33.6918 19.4699C34.4955 20.3976 35.1498 21.453 35.6246 22.5991C35.9348 23.3481 36.1634 24.1238 36.309 24.913H33.6956H32.6956V26.913H33.6956H36.4997C36.5056 27.6916 36.4324 28.4724 36.279 29.2435C35.8353 31.4743 34.74 33.5234 33.1317 35.1317L32.4246 35.8388L33.8388 37.253L34.5459 36.5459C36.4339 34.6579 37.7197 32.2525 38.2406 29.6337C38.7615 27.015 38.4942 24.3006 37.4724 21.8338C36.4506 19.367 34.7203 17.2586 32.5002 15.7752C30.2801 14.2918 27.67 13.5 25 13.5C22.33 13.5 19.7199 14.2918 17.4998 15.7752C15.2797 17.2586 13.5494 19.367 12.5276 21.8338C11.5058 24.3006 11.2385 27.015 11.7594 29.6337C12.2803 32.2525 13.5661 34.6579 15.4541 36.5459ZM25.9191 23.3452L25 21.2005L24.0809 23.3452L22.802 26.3291C22.2145 26.8295 21.8261 27.5421 21.8261 28.3975C21.8261 30.118 23.3973 31.2609 25 31.2609C26.6027 31.2609 28.1739 30.118 28.1739 28.3975C28.1739 27.5421 27.7855 26.8295 27.198 26.3291L25.9191 23.3452Z" stroke="white" stroke-width="2" stroke-linecap="square"/>
</svg>
