<svg width="50" height="50" viewBox="0 0 50 50" fill="none" xmlns="http://www.w3.org/2000/svg">
<path d="M34.5833 27.1476C34.5833 27.1476 39.0904 26.1991 36.8991 22.3246C37.9948 19.3799 34.8644 16.6332 31.421 18.45C31.5775 15.8153 28.6036 13.4906 25.1619 16.6332C21.5603 10.7009 13.7519 15.9213 16.2544 21.1907C10.985 21.6489 12.5887 27.1476 13.276 27.1476L17.4 27.1476M19.989 29.4387V32.6462M19.989 32.6462V32.7126M19.989 32.6462H20.1493M19.989 32.6462H19.9225M19.989 32.7126V32.8066M19.989 32.7126L19.9225 32.6462M19.989 32.7126L20.0359 32.7596M19.989 32.8066V35.8537M19.989 32.8066L20.0359 32.7596M19.989 32.8066L17.8813 34.9143M23.3569 32.6462H20.1493M20.1493 32.6462L22.4174 30.3781M20.1493 32.6462L20.0359 32.7596M19.9225 32.6462H16.9418M19.9225 32.6462L17.7679 30.4915M20.0359 32.7596L22.304 35.0277M32.8191 28.5222V31.7298M32.8191 31.7298V31.7962M32.8191 31.7298H32.9795M32.8191 31.7298H32.7527M32.8191 31.7962V31.8901M32.8191 31.7962L32.7527 31.7298M32.8191 31.7962L32.8661 31.8432M32.8191 31.8901V34.9373M32.8191 31.8901L32.8661 31.8432M32.8191 31.8901L30.7114 33.9978M36.187 31.7298H32.9795M32.9795 31.7298L35.2476 29.4617M32.9795 31.7298L32.8661 31.8432M32.7527 31.7298H29.772M32.7527 31.7298L30.598 29.5751M32.8661 31.8432L35.1342 34.1112M26.404 23.4818V26.6893M26.404 26.6893V26.7558M26.404 26.6893H26.5644M26.404 26.6893H26.3376M26.404 26.7558V26.8497M26.404 26.7558L26.3376 26.6893M26.404 26.7558L26.451 26.8027M26.404 26.8497V29.8969M26.404 26.8497L26.451 26.8027M26.404 26.8497L24.2963 28.9574M29.772 26.6893H26.5644M26.5644 26.6893L28.8325 24.4213M26.5644 26.6893L26.451 26.8027M26.3376 26.6893H23.3569M26.3376 26.6893L24.1829 24.5347M26.451 26.8027L28.7191 29.0708" stroke="white" stroke-width="2" stroke-linecap="round" stroke-linejoin="round"/>
</svg>
