<svg width="50" height="50" viewBox="0 0 50 50" fill="none" xmlns="http://www.w3.org/2000/svg">
<path d="M27.5 32.5C27.5 33.8807 26.3807 35 25 35C23.6193 35 22.5 33.8807 22.5 32.5C22.5 31.3351 23.2967 30.3563 24.375 30.0788V16.25C24.375 15.9048 24.6548 15.625 25 15.625C25.3452 15.625 25.625 15.9048 25.625 16.25V30.0788C26.7033 30.3563 27.5 31.3351 27.5 32.5Z" fill="black"/>
<path fill-rule="evenodd" clip-rule="evenodd" d="M21.875 28.5966V15.625C21.875 14.7962 22.2042 14.0013 22.7903 13.4153C23.3763 12.8292 24.1712 12.5 25 12.5C25.8288 12.5 26.6237 12.8292 27.2097 13.4153C27.7958 14.0013 28.125 14.7962 28.125 15.625V28.5966C29.2681 29.513 30 30.921 30 32.5C30 35.2614 27.7614 37.5 25 37.5C22.2386 37.5 20 35.2614 20 32.5C20 30.921 20.7319 29.513 21.875 28.5966ZM22.5 15.625C22.5 15.52 22.5066 15.4156 22.5196 15.3125C22.5886 14.7647 22.8377 14.2518 23.2322 13.8572C23.7011 13.3884 24.337 13.125 25 13.125C25.663 13.125 26.2989 13.3884 26.7678 13.8572C27.1623 14.2518 27.4114 14.7647 27.4804 15.3125C27.4934 15.4156 27.5 15.52 27.5 15.625V28.9092C27.7001 29.0488 27.8881 29.2047 28.0619 29.375C28.0831 29.3958 28.1042 29.4169 28.125 29.4381C28.8982 30.2272 29.375 31.3079 29.375 32.5C29.375 34.9162 27.4162 36.875 25 36.875C22.5838 36.875 20.625 34.9162 20.625 32.5C20.625 31.3079 21.1018 30.2272 21.875 29.4381C21.8958 29.4169 21.9169 29.3958 21.9381 29.375C22.1119 29.2047 22.2999 29.0488 22.5 28.9092V15.625Z" fill="white"/>
</svg>
