<svg width="50" height="50" viewBox="0 0 50 50" fill="none" xmlns="http://www.w3.org/2000/svg">
<mask id="path-1-outside-1_410_171" maskUnits="userSpaceOnUse" x="11.5" y="14" width="28" height="21" fill="black">
<rect fill="white" x="11.5" y="14" width="28" height="21"/>
<path d="M21.6264 27.0405L22.5838 24.0013C22.671 23.7242 22.2952 23.5462 22.1361 23.7892L21.2949 25.0745L19.0535 28.2441C18.9364 28.4096 19.0549 28.6384 19.2577 28.6384H21.4541C21.6099 28.6384 21.7277 28.7794 21.7001 28.9327L21.1137 32.1906C21.0634 32.4704 21.4447 32.6038 21.5797 32.3537L24.0742 27.7344C24.1641 27.5678 24.0435 27.3656 23.8542 27.3656H21.8649C21.696 27.3656 21.5757 27.2015 21.6264 27.0405Z"/>
<path d="M29.3137 26.8182C29.3137 27.8516 28.3906 28.6893 27.2517 28.6893C26.1129 28.6893 25.1898 27.8516 25.1898 26.8182C25.3581 25.7491 25.1898 26.6273 27.2517 22.2742C29.3137 26.6273 29.1875 25.8636 29.3137 26.8182Z"/>
<path d="M33.4377 30.0258C33.4377 31.0591 32.5145 31.8968 31.3757 31.8968C30.2369 31.8968 29.3137 31.0591 29.3137 30.0258C29.4821 28.9566 29.3137 29.8349 31.3757 25.4818C33.4377 29.8349 33.3115 29.0712 33.4377 30.0258Z"/>
</mask>
<path d="M13.276 29.1476L13.276 28.1476L13.276 28.1476L13.276 29.1476ZM16.2545 23.1907L16.3411 24.1869C16.6675 24.1586 16.9592 23.9721 17.1221 23.6879C17.285 23.4036 17.2983 23.0576 17.1578 22.7617L16.2545 23.1907ZM25.1619 18.6332L24.3071 19.1522C24.4623 19.4078 24.7238 19.5806 25.0198 19.6231C25.3159 19.6656 25.6154 19.5733 25.8362 19.3717L25.1619 18.6332ZM31.421 20.45L30.4227 20.3907C30.4013 20.7511 30.5759 21.0951 30.8794 21.2906C31.1829 21.4862 31.5683 21.5029 31.8876 21.3344L31.421 20.45ZM36.8991 24.3246L35.9619 23.9758C35.859 24.2523 35.8835 24.5601 36.0287 24.8168L36.8991 24.3246ZM34.3773 28.169C33.8369 28.2827 33.491 28.813 33.6047 29.3535C33.7184 29.8939 34.2487 30.2398 34.7892 30.1261L34.3773 28.169ZM13.276 28.1476C13.5645 28.1476 13.7401 28.2853 13.7804 28.3191C13.8325 28.3627 13.8444 28.3888 13.8264 28.3614C13.7928 28.3102 13.7286 28.1851 13.6642 27.9807C13.537 27.577 13.4573 27.0187 13.5243 26.4601C13.5904 25.9093 13.7915 25.4069 14.1765 25.0219C14.5558 24.6425 15.2049 24.2857 16.3411 24.1869L16.1678 22.1945C14.6693 22.3248 13.5428 22.8271 12.7622 23.6077C11.9874 24.3825 11.6443 25.3407 11.5386 26.2218C11.4338 27.0952 11.5545 27.9402 11.7566 28.5817C11.8569 28.9 11.9896 29.208 12.1547 29.4594C12.236 29.5832 12.3477 29.7279 12.4962 29.8523C12.633 29.9669 12.9016 30.1476 13.276 30.1476L13.276 28.1476ZM17.1578 22.7617C16.1793 20.7016 17.1738 18.5982 18.924 17.5745C19.7848 17.071 20.7656 16.8773 21.685 17.0785C22.5855 17.2756 23.5311 17.8739 24.3071 19.1522L26.0167 18.1143C24.992 16.4264 23.6108 15.4526 22.1125 15.1247C20.633 14.801 19.1429 15.1294 17.9142 15.8481C15.4854 17.2689 13.827 20.4104 15.3511 23.6197L17.1578 22.7617ZM25.8362 19.3717C27.3584 17.9817 28.5461 17.9801 29.2315 18.2875C29.9738 18.6205 30.4785 19.4513 30.4227 20.3907L32.4192 20.5093C32.5199 18.814 31.616 17.1651 30.05 16.4627C28.4272 15.7348 26.4071 16.1421 24.4876 17.8948L25.8362 19.3717ZM31.8876 21.3344C33.2948 20.592 34.5136 20.826 35.2525 21.3944C35.9972 21.9672 36.3497 22.9336 35.9619 23.9758L37.8364 24.6733C38.5442 22.7708 37.8793 20.8916 36.4719 19.8091C35.0587 18.7221 32.9905 18.4912 30.9543 19.5656L31.8876 21.3344ZM36.0287 24.8168C36.4962 25.6434 36.5396 26.1918 36.4776 26.5351C36.4155 26.879 36.2203 27.1691 35.9171 27.4255C35.607 27.6879 35.2241 27.8786 34.8941 28.0056C34.7336 28.0673 34.5961 28.1101 34.5016 28.1367C34.4546 28.1499 34.4189 28.159 34.3972 28.1642C34.3864 28.1669 34.3791 28.1686 34.3756 28.1693C34.3739 28.1697 34.3732 28.1699 34.3734 28.1698C34.3736 28.1698 34.374 28.1697 34.3746 28.1696C34.3749 28.1695 34.3753 28.1694 34.3758 28.1693C34.376 28.1693 34.3764 28.1692 34.3765 28.1692C34.3769 28.1691 34.3773 28.169 34.5833 29.1476C34.7892 30.1261 34.7896 30.126 34.7901 30.1259C34.7903 30.1259 34.7908 30.1258 34.7912 30.1257C34.7919 30.1255 34.7927 30.1254 34.7936 30.1252C34.7953 30.1248 34.7973 30.1244 34.7996 30.1239C34.8042 30.1229 34.8099 30.1216 34.8166 30.1201C34.8301 30.1171 34.8479 30.1129 34.8695 30.1077C34.9127 30.0972 34.9718 30.0821 35.0437 30.0618C35.1871 30.0214 35.3846 29.9598 35.6125 29.8721C36.0591 29.7002 36.666 29.4116 37.2087 28.9525C37.7585 28.4875 38.2791 27.814 38.4458 26.8904C38.6126 25.9662 38.3978 24.943 37.7696 23.8323L36.0287 24.8168ZM17.4 28.1476L13.276 28.1476L13.276 30.1476L17.4 30.1476L17.4 28.1476ZM22.5838 24.0013L24.4914 24.6022L24.4914 24.6022L22.5838 24.0013ZM21.6264 27.0405L23.534 27.6413L23.534 27.6413L21.6264 27.0405ZM24.0742 27.7344L22.3144 26.7841L22.3144 26.7841L24.0742 27.7344ZM21.5797 32.3537L23.3395 33.304L23.3395 33.304L21.5797 32.3537ZM21.1137 32.1906L19.1453 31.8363L19.1453 31.8363L21.1137 32.1906ZM21.7001 28.9327L23.6685 29.287L23.6685 29.287L21.7001 28.9327ZM21.2949 25.0745L22.9279 26.2292C22.9417 26.2096 22.9552 26.1898 22.9683 26.1698L21.2949 25.0745ZM22.1361 23.7892L20.4627 22.6939L20.4627 22.6939L22.1361 23.7892ZM19.0535 28.2441L20.6865 29.3988L20.6865 29.3988L19.0535 28.2441ZM29.3137 26.8182H31.3137C31.3137 26.7306 31.308 26.643 31.2965 26.556L29.3137 26.8182ZM25.1898 26.8182L23.2141 26.5072C23.1979 26.6101 23.1898 26.7141 23.1898 26.8182H25.1898ZM27.2517 22.2742L29.0592 21.4181C28.7284 20.7196 28.0246 20.2742 27.2517 20.2742C26.4789 20.2742 25.7751 20.7196 25.4443 21.4181L27.2517 22.2742ZM33.4377 30.0258H35.4377C35.4377 29.9381 35.432 29.8505 35.4205 29.7636L33.4377 30.0258ZM29.3137 30.0258L27.3381 29.7147C27.3219 29.8176 27.3137 29.9216 27.3137 30.0258H29.3137ZM31.3757 25.4818L33.1832 24.6256C32.8523 23.9271 32.1486 23.4818 31.3757 23.4818C30.6028 23.4818 29.8991 23.9271 29.5683 24.6256L31.3757 25.4818ZM20.6762 23.4004L19.7188 26.4396L23.534 27.6413L24.4914 24.6022L20.6762 23.4004ZM21.8649 29.3656H23.8542V25.3656H21.8649V29.3656ZM22.3144 26.7841L19.8199 31.4034L23.3395 33.304L25.834 28.6846L22.3144 26.7841ZM23.0821 32.5449L23.6685 29.287L19.7318 28.5784L19.1453 31.8363L23.0821 32.5449ZM21.4541 26.6384H19.2577V30.6384H21.4541V26.6384ZM22.9683 26.1698L23.8095 24.8846L20.4627 22.6939L19.6215 23.9791L22.9683 26.1698ZM19.6619 23.9197L17.4206 27.0893L20.6865 29.3988L22.9279 26.2292L19.6619 23.9197ZM19.2577 26.6384C20.6773 26.6384 21.5061 28.2397 20.6865 29.3988L17.4206 27.0893C16.3668 28.5796 17.4324 30.6384 19.2577 30.6384V26.6384ZM23.6685 29.287C23.9169 27.907 22.8563 26.6384 21.4541 26.6384V30.6384C20.3635 30.6384 19.5386 29.6517 19.7318 28.5784L23.6685 29.287ZM19.8199 31.4034C20.7655 29.6523 23.4346 30.5865 23.0821 32.5449L19.1453 31.8363C18.6921 34.3542 22.1238 35.5553 23.3395 33.304L19.8199 31.4034ZM23.8542 29.3656C22.5291 29.3656 21.6847 27.95 22.3144 26.7841L25.834 28.6847C26.6435 27.1856 25.5579 25.3656 23.8542 25.3656V29.3656ZM19.7188 26.4396C19.2621 27.8894 20.3448 29.3656 21.8649 29.3656V25.3656C23.0472 25.3656 23.8892 26.5137 23.534 27.6413L19.7188 26.4396ZM24.4914 24.6022C25.2768 22.1086 21.8944 20.5066 20.4627 22.6939L23.8095 24.8846C22.696 26.5858 20.0652 25.3398 20.6762 23.4004L24.4914 24.6022ZM27.3137 26.8182C27.3137 26.7746 27.3243 26.7331 27.339 26.7016C27.3526 26.6723 27.3655 26.6605 27.3658 26.6602C27.3661 26.6599 27.3576 26.6674 27.3377 26.6751C27.3189 26.6823 27.2905 26.6893 27.2517 26.6893V30.6893C29.3078 30.6893 31.3137 29.1346 31.3137 26.8182H27.3137ZM27.2517 26.6893C27.213 26.6893 27.1846 26.6823 27.1658 26.6751C27.1459 26.6674 27.1374 26.6599 27.1377 26.6602C27.138 26.6605 27.1509 26.6723 27.1645 26.7016C27.1792 26.7331 27.1898 26.7746 27.1898 26.8182H23.1898C23.1898 29.1346 25.1957 30.6893 27.2517 30.6893V26.6893ZM27.1654 27.1293C27.2187 26.7912 27.218 26.8124 27.2113 26.835C27.192 26.9007 27.1692 26.9248 27.2875 26.6956C27.5204 26.2448 28.0107 25.344 29.0592 23.1304L25.4443 21.4181C24.4308 23.5576 23.9742 24.3942 23.7337 24.8598C23.6154 25.0889 23.4742 25.3659 23.3746 25.7037C23.2878 25.9984 23.245 26.3107 23.2141 26.5072L27.1654 27.1293ZM25.4443 23.1304C26.4915 25.3412 26.9917 26.2699 27.2285 26.7322C27.3536 26.9766 27.3299 26.9519 27.3084 26.878C27.2931 26.8258 27.2902 26.7719 27.331 27.0805L31.2965 26.556C31.2742 26.3873 31.2397 26.0709 31.1482 25.7573C31.0503 25.4221 30.9057 25.1373 30.7888 24.9091C30.5416 24.4264 30.074 23.5604 29.0592 21.4181L25.4443 23.1304ZM31.4377 30.0258C31.4377 29.9821 31.4482 29.9406 31.4629 29.9091C31.4766 29.8798 31.4894 29.868 31.4898 29.8677C31.4901 29.8674 31.4816 29.875 31.4617 29.8826C31.4428 29.8899 31.4145 29.8968 31.3757 29.8968V33.8968C33.4318 33.8968 35.4377 32.3421 35.4377 30.0258H31.4377ZM31.3757 29.8968C31.337 29.8968 31.3086 29.8899 31.2897 29.8826C31.2699 29.875 31.2614 29.8674 31.2617 29.8677C31.262 29.868 31.2749 29.8798 31.2885 29.9091C31.3032 29.9406 31.3137 29.9821 31.3137 30.0258H27.3137C27.3137 32.3421 29.3196 33.8968 31.3757 33.8968V29.8968ZM31.2894 30.3368C31.3426 29.9987 31.342 30.0199 31.3353 30.0425C31.3159 30.1082 31.2931 30.1323 31.4115 29.9032C31.6444 29.4523 32.1347 28.5515 33.1832 26.3379L29.5683 24.6256C28.5548 26.7651 28.0982 27.6017 27.8577 28.0673C27.7394 28.2964 27.5982 28.5735 27.4986 28.9113C27.4117 29.2059 27.369 29.5183 27.3381 29.7147L31.2894 30.3368ZM29.5683 26.3379C30.6155 28.5487 31.1157 29.4774 31.3524 29.9398C31.4776 30.1841 31.4539 30.1594 31.4323 30.0856C31.4171 30.0333 31.4142 29.9794 31.455 30.288L35.4205 29.7636C35.3981 29.5948 35.3637 29.2784 35.2721 28.9649C35.1743 28.6296 35.0297 28.3448 34.9128 28.1166C34.6656 27.6339 34.198 26.7679 33.1832 24.6256L29.5683 26.3379Z" fill="white" mask="url(#path-1-outside-1_410_171)"/>
</svg>
