<svg width="50" height="50" viewBox="0 0 50 50" fill="none" xmlns="http://www.w3.org/2000/svg">
<path d="M15.6271 18.5V26.1806C15.6271 26.9487 15.8161 27.54 16.194 27.9545C16.5719 28.369 17.1267 28.5762 17.8581 28.5762C18.5896 28.5762 19.1504 28.369 19.5406 27.9545C19.9307 27.54 20.1258 26.9487 20.1258 26.1806V18.5H23.2529V26.1623C23.2529 27.3083 23.009 28.2775 22.5214 29.07C22.0337 29.8624 21.3754 30.4598 20.5464 30.8621C19.7295 31.2645 18.8152 31.4656 17.8033 31.4656C16.7914 31.4656 15.8831 31.2705 15.0785 30.8804C14.286 30.4781 13.6582 29.8807 13.1949 29.0883C12.7316 28.2836 12.5 27.3083 12.5 26.1623V18.5H15.6271Z" fill="black"/>
<path d="M37.5 18.5L32.9465 31.3376H29.033L24.4795 18.5H27.8078L30.9898 28.1922L34.19 18.5H37.5Z" fill="white"/>
</svg>
