<svg width="203" height="217" viewBox="0 0 203 217" fill="none" xmlns="http://www.w3.org/2000/svg">
<ellipse cx="104.058" cy="185.481" rx="98.9418" ry="31.2169" fill="#D7D7D7"/>
<path d="M84.0317 55.8054C84.5507 55.9943 84.8241 56.5724 84.5671 57.0612C84.2712 57.6239 83.9035 58.1475 83.4721 58.6183C82.8149 59.3355 82.0229 59.9162 81.1412 60.3273C80.2596 60.7384 79.3057 60.9718 78.3338 61.0143C77.362 61.0567 76.3913 60.9073 75.4773 60.5746C74.5632 60.2419 73.7236 59.7324 73.0064 59.0752C72.2892 58.418 71.7085 57.626 71.2974 56.7444C70.8862 55.8628 70.6528 54.9089 70.6104 53.937C70.5825 53.2991 70.6373 52.6616 70.7724 52.0403C70.8897 51.5007 71.4708 51.2336 71.9897 51.4225L78.0107 53.6139L84.0317 55.8054Z" fill="black"/>
<path d="M136.746 51.1722C137.265 50.9833 137.846 51.2504 137.964 51.7901C138.099 52.4114 138.154 53.0488 138.126 53.6868C138.083 54.6586 137.85 55.6126 137.439 56.4942C137.028 57.3758 136.447 58.1678 135.73 58.825C135.013 59.4822 134.173 59.9916 133.259 60.3244C132.345 60.6571 131.374 60.8065 130.402 60.764C129.43 60.7216 128.476 60.4882 127.595 60.0771C126.713 59.666 125.921 59.0852 125.264 58.368C124.833 57.8972 124.465 57.3737 124.169 56.8109C123.912 56.3221 124.185 55.744 124.704 55.5551L130.725 53.3637L136.746 51.1722Z" fill="black"/>
<path d="M24.0309 60.7735C13.5982 63.8118 8.32614 72.2408 5.67005 81.7106C1.20904 97.6154 16.7396 111.221 33.2463 110.592H173.705C177.271 110.592 180.747 109.47 183.641 107.384C189.946 102.84 194.222 96.0091 195.553 88.3523L197.103 79.444C197.506 77.1241 197.746 74.7691 197.597 72.4191C196.072 48.473 179.095 28.0078 151.528 42.5525C152.843 20.427 127.869 0.904488 98.9666 27.2957C68.7207 -22.5224 3.01501 16.5226 24.0309 60.7735Z" stroke="black" stroke-width="8" stroke-linejoin="round"/>
<path d="M123.106 95.0053C124.567 95.0053 125.768 93.8163 125.586 92.3667C125.351 90.494 124.866 88.6572 124.14 86.9062C123.077 84.3384 121.518 82.0053 119.553 80.0401C117.587 78.0748 115.254 76.5159 112.686 75.4523C110.119 74.3887 107.367 73.8413 104.587 73.8413C101.808 73.8413 99.0559 74.3887 96.4882 75.4523C93.9204 76.5159 91.5873 78.0748 89.6221 80.0401C87.6568 82.0053 86.0979 84.3384 85.0343 86.9062C84.309 88.6572 83.8237 90.494 83.5884 92.3667C83.4062 93.8163 84.6077 95.0053 86.0688 95.0053V95.0053C87.5299 95.0053 88.6918 93.8128 88.9342 92.372C89.1324 91.1942 89.4633 90.0396 89.9225 88.931C90.7202 87.0052 91.8894 85.2553 93.3634 83.7814C94.8373 82.3074 96.5872 81.1382 98.513 80.3405C100.439 79.5429 102.503 79.1323 104.587 79.1323C106.672 79.1323 108.736 79.5429 110.662 80.3405C112.587 81.1382 114.337 82.3074 115.811 83.7814C117.285 85.2553 118.454 87.0052 119.252 88.931C119.711 90.0396 120.042 91.1942 120.24 92.372C120.483 93.8128 121.645 95.0053 123.106 95.0053V95.0053Z" fill="black"/>
<path d="M93.9237 154.929L112.759 123.883C113.358 122.896 114.877 123.542 114.58 124.659L107.676 150.663C107.533 151.202 107.859 151.755 108.4 151.89L114.3 153.361C114.957 153.525 115.265 154.281 114.908 154.857L97.3302 183.264C96.7053 184.273 95.1547 183.546 95.5316 182.42L103.144 159.676C103.329 159.123 103.003 158.529 102.438 158.388L94.5367 156.418C93.8829 156.255 93.5742 155.506 93.9237 154.929Z" stroke="black" stroke-width="4"/>
</svg>
