<svg width="100" height="100" viewBox="0 0 100 100" fill="none" xmlns="http://www.w3.org/2000/svg">
<circle cx="50" cy="50" r="50" fill="black"/>
<path d="M62.9335 46.2727C62.9335 53.4143 57.1441 59.2037 50.0024 59.2037C42.8608 59.2037 37.0714 53.4143 37.0714 46.2727C37.0714 39.1311 42.8608 33.3417 50.0024 33.3417C57.1441 33.3417 62.9335 39.1311 62.9335 46.2727Z" fill="white"/>
<path d="M50.0024 21.2727V27.0327M50.0024 65.5142V71.2742M67.6802 28.595L63.6072 32.6679M36.0754 60.2727L32.0024 64.3456M32.3247 28.595L36.3976 32.6679M64.0024 60.2727L68.0754 64.3456M25.0024 46.2727H30.7624M69.2438 46.2727H75.0038M62.9335 46.2727C62.9335 53.4143 57.1441 59.2037 50.0024 59.2037C42.8608 59.2037 37.0714 53.4143 37.0714 46.2727C37.0714 39.1311 42.8608 33.3417 50.0024 33.3417C57.1441 33.3417 62.9335 39.1311 62.9335 46.2727Z" stroke="white" stroke-linecap="round"/>
<path d="M47.971 66.6854C45.5063 67.4032 44.2607 69.3946 43.6332 71.6318C42.5793 75.3894 46.2484 78.6036 50.1481 78.455H83.8856C88.0364 78.455 89.0024 74.4235 89.0024 70.2727C89.0024 64.2727 84.9239 58.7763 78.0922 62.3807C78.4028 57.1536 72.5027 52.5414 65.6745 58.7763C58.529 47.0068 43.006 56.2312 47.971 66.6854Z" fill="white" stroke="black" stroke-linejoin="round"/>
<path d="M15.971 66.6854C13.5063 67.4032 12.2607 69.3946 11.6332 71.6318C10.5793 75.3894 14.2484 78.6036 18.1481 78.455H51.8856C56.0364 78.455 57.0024 74.4235 57.0024 70.2727C57.0024 64.2727 52.9239 58.7763 46.0922 62.3807C46.4028 57.1536 40.5027 52.5414 33.6745 58.7763C26.529 47.0068 11.006 56.2312 15.971 66.6854Z" fill="white" stroke="black" stroke-linejoin="round"/>
</svg>
