<svg width="50" height="50" viewBox="0 0 50 50" fill="none" xmlns="http://www.w3.org/2000/svg">
<path d="M19.0821 30.5684L16.6426 35.0615M22.0036 30.5684L19.5641 35.0615M24.9252 30.5684L22.4856 35.0615M27.8467 30.5684L25.4072 35.0615M30.7682 30.5684L28.3287 35.0615M12.5981 24.3334C12.9342 23.1351 13.6013 22.0685 14.9215 21.6841C12.2621 16.0846 20.5765 11.1439 24.4037 17.4478C28.061 14.1083 31.2212 16.5787 31.0548 19.3784C31.8787 18.9437 32.6858 18.7548 33.4285 18.7589C37.8185 18.7829 38.4251 27.988 34.035 27.988V27.988H16.0876C13.9988 28.0676 12.0336 26.346 12.5981 24.3334Z" stroke="black" stroke-width="2" stroke-linecap="round" stroke-linejoin="round"/>
</svg>
