<svg width="240" height="265" viewBox="0 0 240 265" fill="none" xmlns="http://www.w3.org/2000/svg">
<path d="M57.6619 241.818V234.068L77.0938 203.455H83.7756V214.182H79.821L67.571 233.568V233.932H95.1847V241.818H57.6619ZM80.0028 250V239.455L80.1847 236.023V203.455H89.4119V250H80.0028ZM119.991 251.023C116.082 251.008 112.719 250.045 109.901 248.136C107.098 246.227 104.938 243.462 103.423 239.841C101.923 236.22 101.181 231.864 101.196 226.773C101.196 221.697 101.946 217.371 103.446 213.795C104.961 210.22 107.12 207.5 109.923 205.636C112.741 203.758 116.098 202.818 119.991 202.818C123.885 202.818 127.234 203.758 130.037 205.636C132.855 207.515 135.022 210.242 136.537 213.818C138.052 217.379 138.802 221.697 138.787 226.773C138.787 231.879 138.029 236.242 136.514 239.864C135.014 243.485 132.863 246.25 130.06 248.159C127.257 250.068 123.901 251.023 119.991 251.023ZM119.991 242.864C122.658 242.864 124.787 241.523 126.378 238.841C127.969 236.159 128.757 232.136 128.741 226.773C128.741 223.242 128.378 220.303 127.651 217.955C126.938 215.606 125.923 213.841 124.605 212.659C123.302 211.477 121.764 210.886 119.991 210.886C117.34 210.886 115.219 212.212 113.628 214.864C112.037 217.515 111.234 221.485 111.219 226.773C111.219 230.348 111.575 233.333 112.287 235.727C113.014 238.106 114.037 239.894 115.355 241.091C116.673 242.273 118.219 242.864 119.991 242.864ZM145.099 241.818V234.068L164.531 203.455H171.213V214.182H167.259L155.009 233.568V233.932H182.622V241.818H145.099ZM167.44 250V239.455L167.622 236.023V203.455H176.849V250H167.44Z" fill="black"/>
<path d="M37.2321 148L30.7617 172.148M53.7026 148L47.2322 172.148M70.1731 148L63.7026 172.148M86.6436 148L80.1731 172.148M103.114 148L96.6436 172.148M119.585 148L113.114 172.148M136.055 148L129.585 172.148M152.525 148L146.055 172.148M168.996 148L162.525 172.148M185.466 148L178.996 172.148M201.937 148L195.466 172.148M4.91597 95.8045C7.95716 84.9617 13.9013 75.274 25.4856 71.4197C26.07 71.2253 26.3566 70.5443 26.1046 69.9824C2.99724 18.4751 78.7149 -26.3727 114.478 30.4607C114.813 30.9937 115.583 31.1093 116.055 30.6914C149.032 1.44537 177.435 22.6197 177.286 47.7674C177.281 48.5466 178.131 49.0713 178.83 48.7272C212.026 32.3865 231.784 59.4775 231.784 89.0082C231.784 89.447 232.399 90.992 233.414 93.2413C241.094 110.266 229.439 129.924 210.762 129.924H37.4936C17.9932 130.667 -0.354103 114.594 4.91597 95.8045Z" stroke="black" stroke-width="8" stroke-linecap="round"/>
<circle cx="98" cy="74" r="7" fill="black"/>
<circle cx="141.5" cy="74" r="7" fill="black"/>
<path d="M137.5 112C138.881 112 140.016 110.876 139.844 109.506C139.622 107.737 139.163 106.001 138.478 104.346C137.472 101.92 135.999 99.715 134.142 97.8579C132.285 96.0007 130.08 94.5275 127.654 93.5224C125.227 92.5173 122.626 92 120 92C117.374 92 114.773 92.5173 112.346 93.5224C109.92 94.5275 107.715 96.0007 105.858 97.8579C104.001 99.715 102.528 101.92 101.522 104.346C100.837 106.001 100.378 107.737 100.156 109.506C99.9839 110.876 101.119 112 102.5 112V112C103.881 112 104.979 110.873 105.208 109.512C105.395 108.398 105.708 107.307 106.142 106.26C106.896 104.44 108.001 102.786 109.393 101.393C110.786 100.001 112.44 98.8956 114.26 98.1418C116.08 97.388 118.03 97 120 97C121.97 97 123.92 97.388 125.74 98.1418C127.56 98.8956 129.214 100.001 130.607 101.393C131.999 102.786 133.104 104.44 133.858 106.26C134.292 107.307 134.605 108.398 134.792 109.512C135.021 110.873 136.119 112 137.5 112V112Z" fill="black"/>
</svg>
