<svg width="50" height="50" viewBox="0 0 50 50" fill="none" xmlns="http://www.w3.org/2000/svg">
<path d="M31.7313 30.2002C31.7343 30.2232 31.7373 30.2465 31.7404 30.2702C31.7043 33.6475 28.7146 36.5 24.8704 36.5C21.0309 36.5 18.0427 33.6535 18.0005 30.2821L18.0006 30.2812C18.0076 30.2355 18.0145 30.1908 18.0212 30.1472C18.1609 29.2382 18.2302 28.7879 18.3468 28.3747C18.4623 27.965 18.6314 27.5717 19.0291 26.7792C19.1796 26.4793 19.3585 26.1304 19.5729 25.7123C20.4946 23.9149 22.0717 20.8393 24.8597 14.8894C24.86 14.8889 24.8603 14.8883 24.8605 14.8879C24.8631 14.8873 24.8665 14.8869 24.8704 14.8869C24.8742 14.8869 24.8774 14.8873 24.88 14.8878C24.8802 14.8882 24.8804 14.8886 24.8806 14.8891C27.6426 20.7864 29.2413 23.9309 30.1859 25.7886C30.4263 26.2615 30.6243 26.651 30.7884 26.9813C31.1937 27.7974 31.3613 28.1943 31.4669 28.5822C31.572 28.9682 31.6238 29.3689 31.7313 30.2002Z" stroke="black" stroke-width="2"/>
</svg>
