<svg width="50" height="50" viewBox="0 0 50 50" fill="none" xmlns="http://www.w3.org/2000/svg">
<path d="M13.276 30.1476L13.276 29.1476L13.276 29.1476L13.276 30.1476ZM16.2545 24.1907L16.3411 25.1869C16.6675 25.1586 16.9592 24.9721 17.1221 24.6879C17.285 24.4036 17.2983 24.0576 17.1578 23.7617L16.2545 24.1907ZM25.1619 19.6332L24.3071 20.1522C24.4623 20.4078 24.7238 20.5806 25.0198 20.6231C25.3159 20.6656 25.6154 20.5733 25.8362 20.3717L25.1619 19.6332ZM31.421 21.45L30.4227 21.3907C30.4013 21.7511 30.5759 22.0951 30.8794 22.2906C31.1829 22.4862 31.5683 22.5029 31.8876 22.3344L31.421 21.45ZM36.8991 25.3246L35.9619 24.9758C35.859 25.2523 35.8835 25.5601 36.0287 25.8168L36.8991 25.3246ZM34.3773 29.169C33.8369 29.2827 33.491 29.813 33.6047 30.3535C33.7184 30.8939 34.2487 31.2398 34.7892 31.1261L34.3773 29.169ZM29.3137 27.8182H30.3137C30.3137 27.7744 30.3109 27.7306 30.3051 27.6871L29.3137 27.8182ZM25.1898 27.8182L24.2019 27.6627C24.1938 27.7142 24.1898 27.7662 24.1898 27.8182H25.1898ZM27.2517 23.2742L28.1555 22.8461C27.9901 22.4969 27.6382 22.2742 27.2517 22.2742C26.8653 22.2742 26.5134 22.4969 26.348 22.8461L27.2517 23.2742ZM23.3569 30.1093H24.3569C24.3569 30.0655 24.354 30.0217 24.3482 29.9782L23.3569 30.1093ZM19.2329 30.1093L18.2451 29.9538C18.237 30.0053 18.2329 30.0573 18.2329 30.1093H19.2329ZM21.2949 25.5653L22.1986 25.1372C22.0332 24.788 21.6813 24.5653 21.2949 24.5653C20.9084 24.5653 20.5566 24.788 20.3912 25.1372L21.2949 25.5653ZM33.4377 31.0258H34.4377C34.4377 30.9819 34.4348 30.9381 34.4291 30.8947L33.4377 31.0258ZM29.3137 31.0258L28.3259 30.8703C28.3178 30.9217 28.3137 30.9737 28.3137 31.0258H29.3137ZM31.3757 26.4818L32.2795 26.0537C32.114 25.7044 31.7622 25.4818 31.3757 25.4818C30.9893 25.4818 30.6374 25.7044 30.472 26.0537L31.3757 26.4818ZM13.276 29.1476C13.5645 29.1476 13.7401 29.2853 13.7804 29.3191C13.8325 29.3627 13.8444 29.3888 13.8264 29.3614C13.7928 29.3102 13.7286 29.1851 13.6642 28.9807C13.537 28.577 13.4573 28.0187 13.5243 27.4601C13.5904 26.9093 13.7915 26.4069 14.1765 26.0219C14.5558 25.6425 15.2049 25.2857 16.3411 25.1869L16.1678 23.1945C14.6693 23.3248 13.5428 23.8271 12.7622 24.6077C11.9874 25.3825 11.6443 26.3407 11.5386 27.2218C11.4338 28.0952 11.5545 28.9402 11.7566 29.5817C11.8569 29.9 11.9896 30.208 12.1547 30.4594C12.236 30.5832 12.3477 30.7279 12.4962 30.8523C12.633 30.9669 12.9016 31.1476 13.276 31.1476L13.276 29.1476ZM17.1578 23.7617C16.1793 21.7016 17.1738 19.5982 18.924 18.5745C19.7848 18.071 20.7656 17.8773 21.685 18.0785C22.5855 18.2756 23.5311 18.8739 24.3071 20.1522L26.0167 19.1143C24.992 17.4264 23.6108 16.4526 22.1125 16.1247C20.633 15.801 19.1429 16.1294 17.9142 16.8481C15.4854 18.2689 13.827 21.4104 15.3511 24.6197L17.1578 23.7617ZM25.8362 20.3717C27.3584 18.9817 28.5461 18.9801 29.2315 19.2875C29.9738 19.6205 30.4785 20.4513 30.4227 21.3907L32.4192 21.5093C32.5199 19.814 31.616 18.1651 30.05 17.4627C28.4272 16.7348 26.4071 17.1421 24.4876 18.8948L25.8362 20.3717ZM31.8876 22.3344C33.2948 21.592 34.5136 21.826 35.2525 22.3944C35.9972 22.9672 36.3497 23.9336 35.9619 24.9758L37.8364 25.6733C38.5442 23.7708 37.8793 21.8916 36.4719 20.8091C35.0587 19.7221 32.9905 19.4912 30.9543 20.5656L31.8876 22.3344ZM36.0287 25.8168C36.4962 26.6434 36.5396 27.1918 36.4776 27.5351C36.4155 27.879 36.2203 28.1691 35.9171 28.4255C35.607 28.6879 35.2241 28.8786 34.8941 29.0056C34.7336 29.0673 34.5961 29.1101 34.5016 29.1367C34.4546 29.1499 34.4189 29.159 34.3972 29.1642C34.3864 29.1669 34.3791 29.1686 34.3756 29.1693C34.3739 29.1697 34.3732 29.1699 34.3734 29.1698C34.3736 29.1698 34.374 29.1697 34.3746 29.1696C34.3749 29.1695 34.3753 29.1694 34.3758 29.1693C34.376 29.1693 34.3764 29.1692 34.3765 29.1692C34.3769 29.1691 34.3773 29.169 34.5833 30.1476C34.7892 31.1261 34.7896 31.126 34.7901 31.1259C34.7903 31.1259 34.7908 31.1258 34.7912 31.1257C34.7919 31.1256 34.7927 31.1254 34.7936 31.1252C34.7953 31.1248 34.7973 31.1244 34.7996 31.1239C34.8042 31.1229 34.8099 31.1216 34.8166 31.1201C34.8301 31.1171 34.8479 31.1129 34.8695 31.1077C34.9127 31.0972 34.9718 31.0821 35.0437 31.0618C35.1871 31.0214 35.3846 30.9598 35.6125 30.8721C36.0591 30.7002 36.666 30.4116 37.2087 29.9525C37.7585 29.4875 38.2791 28.814 38.4458 27.8904C38.6126 26.9662 38.3978 25.943 37.7696 24.8323L36.0287 25.8168ZM17.4 29.1476L13.276 29.1476L13.276 31.1476L17.4 31.1476L17.4 29.1476ZM28.3137 27.8182C28.3137 28.2101 27.9319 28.6893 27.2517 28.6893V30.6893C28.8492 30.6893 30.3137 29.4931 30.3137 27.8182H28.3137ZM27.2517 28.6893C26.5716 28.6893 26.1898 28.2101 26.1898 27.8182H24.1898C24.1898 29.4931 25.6543 30.6893 27.2517 30.6893V28.6893ZM26.1776 27.9738C26.2252 27.6711 26.2354 27.6089 26.2522 27.5521C26.2625 27.517 26.2807 27.4658 26.3991 27.2367C26.6339 26.7821 27.1157 25.8974 28.1555 23.7023L26.348 22.8461C25.3258 25.0042 24.8608 25.8568 24.6222 26.3187C24.5038 26.5478 24.4037 26.7496 24.3338 26.9865C24.2703 27.2019 24.2384 27.4308 24.2019 27.6627L26.1776 27.9738ZM26.348 23.7023C27.3871 25.896 27.8792 26.809 28.1186 27.2764C28.2416 27.5168 28.26 27.5695 28.2683 27.5978C28.2798 27.6371 28.2862 27.6757 28.3224 27.9494L30.3051 27.6871C30.2782 27.4834 30.253 27.2596 30.1882 27.0375C30.1202 26.8046 30.0177 26.5971 29.8987 26.3649C29.6542 25.8873 29.1784 25.0056 28.1555 22.8461L26.348 23.7023ZM22.3569 30.1093C22.3569 30.5012 21.9751 30.9804 21.2949 30.9804V32.9804C22.8923 32.9804 24.3569 31.7842 24.3569 30.1093H22.3569ZM21.2949 30.9804C20.6147 30.9804 20.2329 30.5012 20.2329 30.1093H18.2329C18.2329 31.7842 19.6974 32.9804 21.2949 32.9804V30.9804ZM20.2207 30.2649C20.2684 29.9622 20.2786 29.9 20.2953 29.8432C20.3057 29.8081 20.3239 29.7569 20.4422 29.5278C20.677 29.0732 21.1589 28.1885 22.1986 25.9934L20.3912 25.1372C19.3689 27.2953 18.9039 28.1479 18.6653 28.6098C18.547 28.8389 18.4468 29.0407 18.377 29.2776C18.3135 29.493 18.2816 29.7219 18.2451 29.9538L20.2207 30.2649ZM20.3912 25.9934C21.4302 28.1871 21.9223 29.1001 22.1617 29.5675C22.2848 29.8079 22.3032 29.8606 22.3115 29.8889C22.3229 29.9282 22.3293 29.9668 22.3655 30.2404L24.3482 29.9782C24.3213 29.7745 24.2962 29.5507 24.2314 29.3286C24.1634 29.0956 24.0608 28.8882 23.9419 28.656C23.6973 28.1784 23.2215 27.2967 22.1986 25.1372L20.3912 25.9934ZM32.4377 31.0258C32.4377 31.4177 32.0559 31.8968 31.3757 31.8968V33.8968C32.9732 33.8968 34.4377 32.7006 34.4377 31.0258H32.4377ZM31.3757 31.8968C30.6956 31.8968 30.3137 31.4177 30.3137 31.0258H28.3137C28.3137 32.7006 29.7783 33.8968 31.3757 33.8968V31.8968ZM30.3016 31.1813C30.3492 30.8786 30.3594 30.8164 30.3761 30.7597C30.3865 30.7245 30.4047 30.6733 30.5231 30.4442C30.7579 29.9897 31.2397 29.1049 32.2795 26.9099L30.472 26.0537C29.4498 28.2117 28.9848 29.0644 28.7462 29.5263C28.6278 29.7554 28.5276 29.9572 28.4578 30.1941C28.3943 30.4094 28.3624 30.6384 28.3259 30.8703L30.3016 31.1813ZM30.472 26.9099C31.5111 29.1035 32.0032 30.0165 32.2425 30.484C32.3656 30.7243 32.384 30.777 32.3923 30.8054C32.4037 30.8446 32.4102 30.8833 32.4463 31.1569L34.4291 30.8947C34.4021 30.691 34.377 30.4671 34.3122 30.245C34.2442 30.0121 34.1416 29.8046 34.0227 29.5724C33.7781 29.0948 33.3024 28.2131 32.2795 26.0537L30.472 26.9099Z" fill="black"/>
</svg>
