<svg width="50" height="50" viewBox="0 0 50 50" fill="none" xmlns="http://www.w3.org/2000/svg">
<mask id="path-1-outside-1_410_170" maskUnits="userSpaceOnUse" x="11.5" y="14.5" width="28" height="21" fill="black">
<rect fill="white" x="11.5" y="14.5" width="28" height="21"/>
<path d="M23.6164 27.6674L24.6886 24.604C24.7837 24.3323 24.4198 24.1416 24.2504 24.3744L23.25 25.75L20.8178 28.8455C20.6889 29.0096 20.8058 29.25 21.0144 29.25H23.445C23.6028 29.25 23.7211 29.3943 23.6902 29.549L23.0331 32.8347C22.978 33.1098 23.3482 33.253 23.4926 33.0124L26.2728 28.3786C26.3728 28.212 26.2528 28 26.0585 28H23.8524C23.6802 28 23.5595 27.83 23.6164 27.6674Z"/>
<path d="M29.1076 27.7276L29.6163 26.1773C29.7065 25.9023 29.3353 25.7194 29.1722 25.9586L28.8333 26.4556L27.2934 28.5462C27.1718 28.7112 27.2896 28.9444 27.4947 28.9444H28.8654C29.022 28.9444 29.14 29.0867 29.1112 29.2405L28.7792 31.0107C28.7271 31.2887 29.1042 31.4259 29.2428 31.1794L30.7904 28.4281C30.8842 28.2615 30.7637 28.0556 30.5725 28.0556H29.3451C29.175 28.0556 29.0546 27.8893 29.1076 27.7276Z"/>
</mask>
<path d="M16.2473 22.2923L16.3713 23.2846C16.6898 23.2447 16.9698 23.0545 17.1241 22.773C17.2784 22.4916 17.2883 22.1532 17.1506 21.8633L16.2473 22.2923ZM25.2124 18.2871L24.3576 18.806C24.5128 19.0617 24.7743 19.2344 25.0703 19.2769C25.3664 19.3194 25.6659 19.2272 25.8867 19.0255L25.2124 18.2871ZM31.5008 20.1124L30.5026 20.0531C30.4812 20.4135 30.6557 20.7575 30.9592 20.953C31.2628 21.1485 31.6481 21.1653 31.9675 20.9968L31.5008 20.1124ZM37.0047 24.0051L36.0675 23.6564C35.9691 23.9207 35.987 24.2142 36.1165 24.4646L37.0047 24.0051ZM31.7443 27.3921C31.1929 27.3596 30.7197 27.7803 30.6873 28.3316C30.6548 28.8829 31.0755 29.3562 31.6268 29.3886L31.7443 27.3921ZM13.7329 27.3903C13.8616 27.3903 13.7699 27.4954 13.6325 27.1493C13.5058 26.83 13.4474 26.3207 13.5597 25.7493C13.7743 24.657 14.5662 23.5103 16.3713 23.2846L16.1232 21.3C13.3406 21.6479 11.9536 23.5502 11.5972 25.3636C11.424 26.2449 11.4821 27.1526 11.7735 27.8871C12.0544 28.5947 12.6826 29.3903 13.7329 29.3903V27.3903ZM17.1506 21.8633C16.1698 19.7981 17.1658 17.8463 18.8883 16.9581C19.7431 16.5173 20.7334 16.3727 21.677 16.621C22.6066 16.8657 23.5727 17.5131 24.3576 18.806L26.0672 17.7681C25.0429 16.0809 23.6694 15.0772 22.1859 14.6869C20.7165 14.3002 19.2202 14.5367 17.9717 15.1805C15.4877 16.4614 13.8104 19.4923 15.344 22.7213L17.1506 21.8633ZM25.8867 19.0255C27.417 17.6282 28.6122 17.6256 29.303 17.9354C30.0507 18.2708 30.5588 19.1074 30.5026 20.0531L32.4991 20.1717C32.6001 18.4702 31.6929 16.8155 30.1216 16.1106C28.4933 15.3803 26.4657 15.7885 24.5381 17.5486L25.8867 19.0255ZM31.9675 20.9968C33.3828 20.2501 34.6092 20.4852 35.3532 21.0575C36.103 21.6341 36.4578 22.6072 36.0675 23.6564L37.9419 24.3538C38.6523 22.4445 37.9851 20.5586 36.5726 19.4721C35.1543 18.3813 33.0785 18.1493 31.0342 19.2279L31.9675 20.9968ZM36.1165 24.4646C36.6507 25.497 36.5132 25.9866 36.3727 26.2218C36.1857 26.535 35.7418 26.8349 34.9992 27.0566C34.2883 27.2689 33.4793 27.3569 32.8224 27.3876C32.4993 27.4028 32.2244 27.4036 32.0319 27.4008C31.9358 27.3993 31.8609 27.397 31.8114 27.3951C31.7867 27.3941 31.7683 27.3933 31.7569 27.3927C31.7513 27.3924 31.7473 27.3922 31.7452 27.3921C31.7441 27.392 31.7435 27.392 31.7433 27.392C31.7433 27.392 31.7433 27.392 31.7434 27.392C31.7435 27.392 31.7437 27.392 31.7438 27.392C31.744 27.392 31.7443 27.3921 31.6855 28.3903C31.6268 29.3886 31.6271 29.3886 31.6275 29.3886C31.6276 29.3887 31.628 29.3887 31.6283 29.3887C31.629 29.3887 31.6297 29.3888 31.6306 29.3888C31.6323 29.3889 31.6346 29.389 31.6372 29.3892C31.6426 29.3895 31.6498 29.3899 31.6589 29.3903C31.677 29.3912 31.7023 29.3923 31.7343 29.3936C31.7982 29.396 31.8889 29.3988 32.002 29.4005C32.2277 29.4039 32.5446 29.4029 32.916 29.3855C33.6482 29.3511 34.6391 29.2514 35.5714 28.973C36.472 28.7041 37.5145 28.2106 38.0898 27.2472C38.7116 26.206 38.6123 24.936 37.8929 23.5456L36.1165 24.4646ZM19.0254 27.3903H13.7329V29.3903H19.0254V27.3903ZM24.6886 24.604L22.8009 23.9433L24.6886 24.604ZM23.6164 27.6674L21.7287 27.0067L21.7287 27.0067L23.6164 27.6674ZM26.2728 28.3786L27.9878 29.4076L27.9878 29.4076L26.2728 28.3786ZM23.4926 33.0124L25.2076 34.0414L25.2076 34.0414L23.4926 33.0124ZM23.0331 32.8347L21.0719 32.4425L21.0719 32.4425L23.0331 32.8347ZM23.6902 29.549L25.6514 29.9413L25.6514 29.9413L23.6902 29.549ZM23.25 25.75L24.8226 26.9856C24.8379 26.9662 24.8529 26.9464 24.8675 26.9263L23.25 25.75ZM24.2504 24.3744L25.8679 25.5507L25.8679 25.5507L24.2504 24.3744ZM20.8178 28.8455L22.3904 30.0812L22.3904 30.0812L20.8178 28.8455ZM29.6163 26.1773L27.716 25.5538L27.716 25.5538L29.6163 26.1773ZM29.1076 27.7276L27.2073 27.1041L27.2073 27.1041L29.1076 27.7276ZM30.7904 28.4281L32.5336 29.4086L32.5336 29.4086L30.7904 28.4281ZM29.2428 31.1794L27.4997 30.1989L27.4997 30.1989L29.2428 31.1794ZM28.7792 31.0107L30.745 31.3793L30.745 31.3793L28.7792 31.0107ZM29.1112 29.2405L27.1454 28.8719L27.1454 28.8719L29.1112 29.2405ZM28.8333 26.4556L30.4436 27.6417C30.458 27.6221 30.4721 27.6023 30.4858 27.5822L28.8333 26.4556ZM29.1722 25.9586L27.5197 24.8319L27.5197 24.8319L29.1722 25.9586ZM27.2934 28.5462L25.6831 27.36L25.6831 27.36L27.2934 28.5462ZM22.8009 23.9433L21.7287 27.0067L25.5041 28.3281L26.5763 25.2647L22.8009 23.9433ZM23.8524 30H26.0585V26H23.8524V30ZM24.5578 27.3496L21.7776 31.9834L25.2076 34.0414L27.9878 29.4076L24.5578 27.3496ZM24.9942 33.227L25.6514 29.9413L21.729 29.1568L21.0719 32.4425L24.9942 33.227ZM23.445 27.25H21.0144V31.25H23.445V27.25ZM24.8675 26.9263L25.8679 25.5507L22.633 23.198L21.6325 24.5737L24.8675 26.9263ZM21.6774 24.5144L19.2451 27.6099L22.3904 30.0812L24.8226 26.9856L21.6774 24.5144ZM21.0144 27.25C22.4746 27.25 23.2926 28.933 22.3904 30.0812L19.2452 27.6099C18.0852 29.0862 19.1369 31.25 21.0144 31.25V27.25ZM25.6514 29.9413C25.9298 28.549 24.8649 27.25 23.445 27.25V31.25C22.3407 31.25 21.5125 30.2397 21.729 29.1568L25.6514 29.9413ZM21.7776 31.9834C22.788 30.2993 25.3794 31.3012 24.9942 33.227L21.0719 32.4425C20.5767 34.9185 23.9084 36.2066 25.2076 34.0414L21.7776 31.9834ZM26.0585 30C24.6982 30 23.858 28.516 24.5578 27.3496L27.9878 29.4076C28.8876 27.9079 27.8074 26 26.0585 26V30ZM21.7287 27.0067C21.2167 28.4696 22.3025 30 23.8524 30V26C25.0579 26 25.9024 27.1903 25.5041 28.3281L21.7287 27.0067ZM26.5763 25.2647C27.4322 22.8192 24.1569 21.1026 22.633 23.198L25.8679 25.5507C24.6826 27.1805 22.1352 25.8454 22.8009 23.9433L26.5763 25.2647ZM27.716 25.5538L27.2073 27.1041L31.0079 28.3512L31.5166 26.8009L27.716 25.5538ZM29.3451 30.0556H30.5725V26.0556H29.3451V30.0556ZM29.0473 27.4476L27.4997 30.1989L30.986 32.1599L32.5336 29.4086L29.0473 27.4476ZM30.745 31.3793L31.0769 29.6091L27.1454 28.8719L26.8135 30.6422L30.745 31.3793ZM28.8654 26.9444H27.4947V30.9444H28.8654V26.9444ZM30.4858 27.5822L30.8247 27.0852L27.5197 24.8319L27.1809 25.3289L30.4858 27.5822ZM27.223 25.2694L25.6831 27.36L28.9037 29.7323L30.4436 27.6417L27.223 25.2694ZM27.4947 26.9444C28.9298 26.9444 29.7548 28.5768 28.9037 29.7323L25.6831 27.36C24.5888 28.8457 25.6495 30.9444 27.4947 30.9444V26.9444ZM31.0769 29.6091C31.3365 28.2244 30.2742 26.9444 28.8654 26.9444V30.9444C27.7697 30.9444 26.9435 29.9489 27.1454 28.8719L31.0769 29.6091ZM27.4997 30.1989C28.4704 28.4732 31.1099 29.4333 30.745 31.3793L26.8135 30.6422C26.3444 33.1441 29.738 34.3786 30.986 32.1599L27.4997 30.1989ZM30.5725 30.0556C29.2341 30.0556 28.3911 28.6142 29.0473 27.4476L32.5336 29.4086C33.3773 27.9088 32.2934 26.0556 30.5725 26.0556V30.0556ZM27.2073 27.1041C26.7299 28.5591 27.8138 30.0556 29.3451 30.0556V26.0556C30.5362 26.0556 31.3792 27.2195 31.0079 28.3512L27.2073 27.1041ZM31.5166 26.8009C32.3288 24.3256 28.9873 22.6795 27.5197 24.8319L30.8247 27.0852C29.6832 28.7593 27.0843 27.479 27.716 25.5538L31.5166 26.8009Z" fill="black" mask="url(#path-1-outside-1_410_170)"/>
</svg>
