<svg width="50" height="50" viewBox="0 0 50 50" fill="none" xmlns="http://www.w3.org/2000/svg">
<path d="M36.39 24.3068C36.9325 24.7011 36.9941 25.516 36.4845 25.952C34.0228 28.0578 31.0524 30.1351 25 30.1351C19.0579 30.1351 16.0865 27.8826 13.6507 25.9625C13.099 25.5277 13.133 24.6553 13.7003 24.241C16.1269 22.4691 19.0982 20 25 20C30.9752 20 33.9465 22.5308 36.39 24.3068Z" stroke="black" stroke-width="2"/>
<path d="M27.3649 25.4054C27.3649 26.5249 26.4573 27.4324 25.3378 27.4324C24.2183 27.4324 23.3108 26.5249 23.3108 25.4054C23.3108 24.2859 24.2183 23.3784 25.3378 23.3784C26.4573 23.3784 27.3649 24.2859 27.3649 25.4054Z" stroke="black" stroke-width="2"/>
</svg>
