<svg width="50" height="50" viewBox="0 0 50 50" fill="none" xmlns="http://www.w3.org/2000/svg">
<path d="M12 21.7276H31.4731C33.539 21.7276 35.884 21.4121 36.6934 19.5114C37.1719 18.3877 37.1782 17.038 36.0724 15.9001C35.4668 15.2769 34.5996 14.9511 33.7323 15.006C32.6645 15.0736 31.2964 15.5483 31.0868 17.489M12 27.4968H31.4731C33.539 27.4968 35.884 27.8123 36.6934 29.713C37.1719 30.8367 37.1782 32.1864 36.0724 33.3243C35.4668 33.9475 34.5996 34.2733 33.7323 34.2184C32.6645 34.1508 31.2964 33.6761 31.0868 31.7354M12 24.6122H27.3846M29.3077 24.6122H33.1538M35.0769 24.6122H37" stroke="black" stroke-width="2" stroke-linecap="round"/>
</svg>
